<?xml version="1.0" standalone="no"?><!DOCTYPE svg PUBLIC "-//W3C//DTD SVG 1.1//EN" "http://www.w3.org/Graphics/SVG/1.1/DTD/svg11.dtd"><svg t="1681005405169" class="icon" viewBox="0 0 1024 1024" version="1.1" xmlns="http://www.w3.org/2000/svg" p-id="2383" xmlns:xlink="http://www.w3.org/1999/xlink" width="200" height="200"><path d="M764.928 190.506667A255.402667 255.402667 0 0 1 853.333333 384v298.666667a256 256 0 0 1-256 256h-170.666666a256 256 0 0 1-256-256V384c0-77.269333 34.261333-146.56 88.405333-193.493333C278.101333 251.733333 384.085333 298.666667 512 298.666667c127.914667 0 233.898667-46.933333 252.928-108.16z" fill="#000000" opacity=".3" p-id="2384"></path><path d="M654.848 156.501333C619.690667 138.88 568.192 128 512 128c-56.192 0-107.690667 10.88-142.848 28.501333A115.626667 115.626667 0 0 0 346.666667 170.666667c5.290667 4.48 12.842667 9.386667 22.485333 14.165333C404.309333 202.453333 455.808 213.333333 512 213.333333c56.192 0 107.690667-10.88 142.848-28.501333A115.626667 115.626667 0 0 0 677.333333 170.666667a115.626667 115.626667 0 0 0-22.485333-14.165334z" fill="#000000" p-id="2385"></path></svg>